<svg width="150" height="40" viewBox="0 0 150 40" fill="none" xmlns="http://www.w3.org/2000/svg">
  <!-- Main shape -->
  <rect x="4" y="8" width="32" height="24" rx="4" fill="#3563E9" />

  <!-- Inner data icon -->
  <path d="M12 16H28M12 20H28M12 24H20" stroke="white" stroke-width="2" stroke-linecap="round" />

  <!-- Connecting dots -->
  <circle cx="9" cy="16" r="2" fill="white" />
  <circle cx="9" cy="20" r="2" fill="white" />
  <circle cx="9" cy="24" r="2" fill="white" />

  <!-- Text -->
  <path
    d="M45 16C45 13.7909 46.7909 12 49 12H53C55.2091 12 57 13.7909 57 16V24C57 26.2091 55.2091 28 53 28H49C46.7909 28 45 26.2091 45 24V16Z"
    fill="#3563E9" />
  <path d="M62 12H65.5L70 24H66.5L65.7 22H61.8L61 24H57.5L62 12ZM62.8 19.5H64.7L63.8 17L62.8 19.5Z"
    fill="#1A202C" />
  <path
    d="M70 16C70 13.7909 71.7909 12 74 12H76C78.2091 12 80 13.7909 80 16V24H76.5V16.5C76.5 16.2239 76.2761 16 76 16H74C73.7239 16 73.5 16.2239 73.5 16.5V24H70V16Z"
    fill="#1A202C" />
  <path
    d="M81 16C81 13.7909 82.7909 12 85 12H89C91.2091 12 93 13.7909 93 16V24C93 26.2091 91.2091 28 89 28H85C82.7909 28 81 26.2091 81 24V16Z"
    fill="#1A202C" />
  <path
    d="M84.5 16.5V24H89.5V16.5C89.5 16.2239 89.2761 16 89 16H85C84.7239 16 84.5 16.2239 84.5 16.5Z"
    fill="white" />
  <path
    d="M94 16C94 13.7909 95.7909 12 98 12H102C104.209 12 106 13.7909 106 16V19.5C106 21.7091 104.209 23.5 102 23.5H97.5V24H106V27.5H98C95.7909 27.5 94 25.7091 94 23.5V16Z"
    fill="#1A202C" />
  <path
    d="M97.5 16.5V20H102C102.276 20 102.5 19.7761 102.5 19.5V16.5C102.5 16.2239 102.276 16 102 16H98C97.7239 16 97.5 16.2239 97.5 16.5Z"
    fill="white" />
  <path
    d="M107 16C107 13.7909 108.791 12 111 12H115C117.209 12 119 13.7909 119 16V24C119 26.2091 117.209 28 115 28H111C108.791 28 107 26.2091 107 24V16Z"
    fill="#1A202C" />
  <path
    d="M110.5 16.5V23.5C110.5 23.7761 110.724 24 111 24H115C115.276 24 115.5 23.7761 115.5 23.5V16.5C115.5 16.2239 115.276 16 115 16H111C110.724 16 110.5 16.2239 110.5 16.5Z"
    fill="white" />
  <path d="M120 12H131.5V15.5H123.5V18.5H130V22H123.5V24H132V27.5H120V12Z" fill="#1A202C" />
  <path
    d="M132 16C132 13.7909 133.791 12 136 12H140C142.209 12 144 13.7909 144 16V24C144 26.2091 142.209 28 140 28H136C133.791 28 132 26.2091 132 24V16Z"
    fill="#1A202C" />
  <path
    d="M135.5 16.5V23.5C135.5 23.7761 135.724 24 136 24H140C140.276 24 140.5 23.7761 140.5 23.5V16.5C140.5 16.2239 140.276 16 140 16H136C135.724 16 135.5 16.2239 135.5 16.5Z"
    fill="white" />
</svg> 